<svg>
    <symbol id="background-1" data-name="Layer 1" xmlns="http://www.w3.org/2000/svg" xmlns:xlink="http://www.w3.org/1999/xlink" viewBox="0 0 32 32"><defs><linearGradient id="b2e2edbd-f8c0-4f2d-8b61-47ddc0fc2221" x1="130.77" y1="1043.32" x2="631.11" y2="537.75" gradientTransform="matrix(1, 0, 0, -1, 244.39, 1166.96)" gradientUnits="userSpaceOnUse"><stop offset="0" stop-color="#217f7a"/><stop offset="1" stop-color="#1b3c6b"/></linearGradient></defs><g id="afec5a47-0230-4631-93a9-5fb15fb24f21" data-name="Layer 2"><g id="aaef0f12-de0d-4d74-b448-33d2e13a5c3e" data-name="bg"><rect fill="url(#b2e2edbd-f8c0-4f2d-8b61-47ddc0fc2221)"/></g></g></symbol>
    <symbol id="syncgene-logo" viewBox="66 230 644 153">
        <path fill="#47B5FF" d="M203 299.333c-4.828-9.196-12.3-17.013-21.151-22.415-8.736-5.403-19.656-8.966-30.002-8.736-7.126.23-12.644 6.092-12.529 13.104.23 7.126 6.092 12.644 13.104 12.529 6.552-.115 12.759 1.035 18.622 4.138 6.207 3.334 11.38 8.622 14.599 14.829 6.782 12.874 5.058 28.967-3.908 40.462-8.046 10.346-21.036 15.863-34.025 14.943s-24.944-8.392-31.841-19.427l-.23-.459c-.919-1.495-2.759-2.414-4.713-2.069-9.196 1.494-19.082-.92-26.668-6.897-7.702-5.862-12.875-15.058-13.794-25.059-.46-4.942 0-10.115 1.609-14.943 1.494-4.828 4.138-9.311 7.472-13.219 2.414-2.874 5.402-5.288 8.621-7.357.115-.689.115-1.264.23-1.954-3.908 1.839-7.587 4.483-10.69 7.472-3.908 3.793-7.127 8.506-9.196 13.679s-3.219 10.806-3.104 16.438c.115 11.38 5.172 22.76 13.909 30.576 4.253 3.908 9.426 7.012 15.058 8.966 4.483 1.609 9.311 2.299 14.139 2.299-.46-.919 1.149 0 0 0 4.138 7.013 10 13.104 16.897 17.588 7.816 5.058 17.127 7.932 26.553 8.391 9.426.46 19.082-1.724 27.703-6.207 8.506-4.482 15.978-11.265 21.151-19.541 2.644-4.139 4.713-8.621 6.207-13.449 1.495-4.713 2.184-9.655 2.529-14.599.575-10.002-1.724-20.117-6.552-29.083-4.712-8.966 4.828 8.966 0 0-4.712-8.966 4.828 8.966 0 0z"/>
        <path fill="#0C5CC9" d="M102.765 312.667c4.828 9.196 12.299 17.013 21.15 22.415 8.736 5.402 19.657 8.966 30.002 8.736 7.127-.23 12.645-6.093 12.529-13.104-.229-7.127-6.092-12.645-13.104-12.529-6.552.115-12.759-1.034-18.622-4.138-6.208-3.334-11.38-8.622-14.599-14.829-6.782-12.874-5.058-28.967 3.908-40.462 8.046-10.345 21.036-15.863 34.025-14.943s24.944 8.391 31.841 19.426l.23.46c.919 1.494 2.759 2.414 4.713 2.069 9.196-1.494 19.082.92 26.668 6.897 7.701 5.863 12.874 15.059 13.793 25.059.46 4.942 0 10.001-1.609 14.943-1.495 4.828-4.138 9.311-7.472 13.219-2.414 2.874-5.403 5.288-8.622 7.357-.115.689-.115 1.265-.229 1.954 3.908-1.84 7.586-4.483 10.69-7.472 3.908-3.794 7.127-8.507 9.196-13.679 2.069-5.173 3.218-10.806 3.104-16.438-.115-11.38-5.288-22.76-13.909-30.577-4.253-3.908-9.426-7.012-15.059-8.966-4.483-1.609-9.311-2.299-14.139-2.299.459.919-1.149 0 0 0-4.138-7.012-10-13.104-16.897-17.587-7.817-5.058-17.127-7.932-26.553-8.392-9.426-.459-19.082 1.724-27.703 6.208-8.506 4.483-15.978 11.265-21.15 19.541-2.644 4.138-4.713 8.621-6.208 13.449-1.494 4.713-2.184 9.656-2.529 14.599-.572 10.001 1.727 20.117 6.555 29.083 4.713 8.966-4.828-8.966 0 0 4.713 8.966-4.828-8.966 0 0z"/>
        <path fill="#6D668B" d="M288.752 270.71c8.161 0 15.518 2.184 21.84 6.438l-3.333 7.356c-5.748-3.908-12.07-5.862-18.967-5.862-4.483 0-8.046.805-10.69 2.414s-4.023 3.908-4.023 6.782c0 2.759.919 5.058 2.874 6.897 1.955 1.839 4.253 3.218 7.242 4.138 2.874.92 5.977 1.954 9.311 3.104s6.438 2.299 9.311 3.563 5.288 3.219 7.127 5.978c1.954 2.759 2.874 5.978 2.874 9.886 0 5.747-2.299 10.23-6.897 13.679-4.598 3.448-10.575 5.173-18.047 5.173-4.943 0-9.656-.92-14.369-2.874s-8.621-4.482-11.955-7.701l3.563-7.127c3.104 3.104 6.782 5.518 10.92 7.242 4.138 1.724 8.162 2.528 12.07 2.528 4.943 0 8.966-.92 11.84-2.874 2.874-1.954 4.368-4.482 4.368-7.816 0-2.414-.689-4.482-2.069-6.207s-3.219-2.988-5.518-4.023c-2.299-.919-4.828-1.839-7.586-2.644s-5.518-1.725-8.276-2.644c-2.759-.92-5.288-2.069-7.587-3.449-2.299-1.379-4.138-3.218-5.518-5.632s-2.069-5.288-2.069-8.622c0-5.402 2.184-9.656 6.552-12.989 4.023-3.104 9.771-4.714 17.012-4.714zm74.028 17.243l-23.794 59.313c-3.333 8.047-8.506 12.069-15.519 12.069-4.138 0-7.816-1.264-10.92-3.793l3.219-6.438c2.299 1.609 4.713 2.414 7.242 2.414 4.253 0 7.356-2.414 9.426-7.241l2.184-4.828-21.496-51.497h8.046l17.242 42.761 16.438-42.761h7.932zm32.645-.23c6.208 0 11.036 1.839 14.483 5.402 3.449 3.563 5.174 8.506 5.174 14.829v31.956h-7.702v-29.887c0-4.599-1.265-8.162-3.908-10.69-2.644-2.529-6.207-3.793-10.805-3.793-5.058.115-9.081 1.609-12.185 4.598-3.104 2.988-4.828 7.012-5.288 11.954v27.818h-7.702v-51.842h7.702v11.38c3.679-7.702 10.346-11.61 20.231-11.725zm52.303.115c8.391-.115 14.943 2.529 20.001 7.702l-4.253 5.403c-4.254-4.023-9.312-5.978-15.403-5.978-5.403 0-9.771 1.724-13.22 5.288-3.448 3.563-5.173 8.161-5.173 13.794 0 5.632 1.725 10.23 5.173 13.794 3.449 3.563 7.816 5.402 13.22 5.402 6.896 0 12.299-2.185 16.093-6.667l4.482 4.713c-4.942 5.978-11.839 8.966-20.806 8.966-7.586 0-13.679-2.414-18.507-7.242-4.827-4.827-7.241-11.149-7.241-18.852 0-7.701 2.414-13.908 7.241-18.852 4.828-5.057 10.921-7.471 18.393-7.471zm77.705 18.622h11.61v23.564c-6.553 7.127-15.748 10.69-27.818 10.69-10.23 0-18.736-3.334-25.519-10.001-6.896-6.667-10.23-15.173-10.23-25.403 0-10.231 3.448-18.737 10.461-25.634 7.012-6.782 15.402-10.23 25.403-10.23 9.886 0 18.162 2.874 24.714 8.621l-6.207 8.851c-2.644-2.299-5.402-3.908-8.161-4.828-2.759-.919-5.862-1.379-9.541-1.379-7.012 0-12.76 2.299-17.473 6.782s-7.126 10.346-7.126 17.702 2.299 13.219 6.896 17.587c4.598 4.483 10.115 6.667 16.668 6.667 6.552 0 11.954-1.379 16.438-4.253V306.46h-.115zm69.085 12.069H553.48c.229 3.793 1.954 6.897 5.173 9.196s6.896 3.448 11.035 3.448c6.552 0 11.495-2.069 14.943-6.207l6.322 6.896c-5.633 5.862-12.989 8.736-22.07 8.736-7.357 0-13.564-2.414-18.737-7.356-5.173-4.943-7.701-11.495-7.701-19.656 0-8.276 2.644-14.829 7.816-19.657 5.288-4.828 11.38-7.242 18.507-7.242s13.219 2.184 18.162 6.437c4.942 4.253 7.472 10.231 7.472 17.817v7.587h.116zm-41.038-8.621h30.002c0-4.368-1.38-7.816-4.139-10.115-2.759-2.414-6.207-3.563-10.23-3.563s-7.701 1.264-10.92 3.678c-3.103 2.413-4.713 5.747-4.713 10zm59.314 1.61v28.393h-11.035v-52.417h11.035v9.541c1.725-3.219 4.253-5.748 7.357-7.587 3.104-1.839 6.437-2.759 10.115-2.759 5.862 0 10.69 1.839 14.368 5.403 3.679 3.563 5.518 8.851 5.518 15.633v32.07h-11.035v-28.737c0-9.655-4.022-14.483-11.954-14.483-3.794 0-7.127 1.265-9.886 3.793-3.103 2.644-4.483 6.321-4.483 11.15zm96.328 7.011h-41.037c.229 3.793 1.954 6.897 5.173 9.196 3.218 2.299 6.896 3.448 11.035 3.448 6.552 0 11.494-2.069 14.943-6.207l6.322 6.896c-5.633 5.862-12.989 8.736-22.07 8.736-7.357 0-13.564-2.414-18.737-7.356-5.173-4.943-7.701-11.495-7.701-19.656 0-8.276 2.644-14.829 7.816-19.657 5.287-4.828 11.38-7.242 18.507-7.242s13.219 2.184 18.162 6.437c4.942 4.253 7.472 10.231 7.472 17.817v7.587h.115zm-41.037-8.621h30.002c0-4.368-1.38-7.816-4.139-10.115-2.759-2.414-6.207-3.563-10.23-3.563s-7.701 1.264-10.92 3.678c-3.104 2.413-4.713 5.747-4.713 10z"/>
    </symbol>
    <symbol id="stethoscope-solid" aria-hidden="true" focusable="false" data-prefix="fas" data-icon="stethoscope" class="svg-inline--fa fa-stethoscope fa-w-16" role="img" xmlns="http://www.w3.org/2000/svg" viewBox="0 0 512 512"><path fill="white" d="M447.1 112c-34.2.5-62.3 28.4-63 62.6-.5 24.3 12.5 45.6 32 56.8V344c0 57.3-50.2 104-112 104-60 0-109.2-44.1-111.9-99.2C265 333.8 320 269.2 320 192V36.6c0-11.4-8.1-21.3-19.3-23.5L237.8.5c-13-2.6-25.6 5.8-28.2 18.8L206.4 35c-2.6 13 5.8 25.6 18.8 28.2l30.7 6.1v121.4c0 52.9-42.2 96.7-95.1 97.2-53.4.5-96.9-42.7-96.9-96V69.4l30.7-6.1c13-2.6 21.4-15.2 18.8-28.2l-3.1-15.7C107.7 6.4 95.1-2 82.1.6L19.3 13C8.1 15.3 0 25.1 0 36.6V192c0 77.3 55.1 142 128.1 156.8C130.7 439.2 208.6 512 304 512c97 0 176-75.4 176-168V231.4c19.1-11.1 32-31.7 32-55.4 0-35.7-29.2-64.5-64.9-64zm.9 80c-8.8 0-16-7.2-16-16s7.2-16 16-16 16 7.2 16 16-7.2 16-16 16z"></path></symbol>
    <symbol id="arrow-down-solid" aria-hidden="true" focusable="false" data-prefix="fas" data-icon="arrow-down" class="svg-inline--fa fa-arrow-down fa-w-14" role="img" xmlns="http://www.w3.org/2000/svg" viewBox="0 0 448 512"><path fill="currentColor" d="M413.1 222.5l22.2 22.2c9.4 9.4 9.4 24.6 0 33.9L241 473c-9.4 9.4-24.6 9.4-33.9 0L12.7 278.6c-9.4-9.4-9.4-24.6 0-33.9l22.2-22.2c9.5-9.5 25-9.3 34.3.4L184 343.4V56c0-13.3 10.7-24 24-24h32c13.3 0 24 10.7 24 24v287.4l114.8-120.5c9.3-9.8 24.8-10 34.3-.4z"></path></symbol>
    <symbol id="arrow-up-solid" aria-hidden="true" focusable="false" data-prefix="fas" data-icon="arrow-up" class="svg-inline--fa fa-arrow-up fa-w-14" role="img" xmlns="http://www.w3.org/2000/svg" viewBox="0 0 448 512"><path fill="currentColor" d="M34.9 289.5l-22.2-22.2c-9.4-9.4-9.4-24.6 0-33.9L207 39c9.4-9.4 24.6-9.4 33.9 0l194.3 194.3c9.4 9.4 9.4 24.6 0 33.9L413 289.4c-9.5 9.5-25 9.3-34.3-.4L264 168.6V456c0 13.3-10.7 24-24 24h-32c-13.3 0-24-10.7-24-24V168.6L69.2 289.1c-9.3 9.8-24.8 10-34.3.4z"></path></symbol>
    <symbol id="copyright-regular" aria-hidden="true" focusable="false" data-prefix="far" data-icon="copyright" class="svg-inline--fa fa-copyright fa-w-16" role="img" xmlns="http://www.w3.org/2000/svg" viewBox="0 0 512 512"><path fill="currentColor" d="M256 8C119.033 8 8 119.033 8 256s111.033 248 248 248 248-111.033 248-248S392.967 8 256 8zm0 448c-110.532 0-200-89.451-200-200 0-110.531 89.451-200 200-200 110.532 0 200 89.451 200 200 0 110.532-89.451 200-200 200zm107.351-101.064c-9.614 9.712-45.53 41.396-104.065 41.396-82.43 0-140.484-61.425-140.484-141.567 0-79.152 60.275-139.401 139.762-139.401 55.531 0 88.738 26.62 97.593 34.779a11.965 11.965 0 0 1 1.936 15.322l-18.155 28.113c-3.841 5.95-11.966 7.282-17.499 2.921-8.595-6.776-31.814-22.538-61.708-22.538-48.303 0-77.916 35.33-77.916 80.082 0 41.589 26.888 83.692 78.277 83.692 32.657 0 56.843-19.039 65.726-27.225 5.27-4.857 13.596-4.039 17.82 1.738l19.865 27.17a11.947 11.947 0 0 1-1.152 15.518z"></path></symbol>
    <symbol id="sync-solid" aria-hidden="true" focusable="false" data-prefix="fas" data-icon="sync" class="svg-inline--fa fa-sync fa-w-16" role="img" xmlns="http://www.w3.org/2000/svg" viewBox="0 0 512 512"><path fill="white" d="M440.65 12.57l4 82.77A247.16 247.16 0 0 0 255.83 8C134.73 8 33.91 94.92 12.29 209.82A12 12 0 0 0 24.09 224h49.05a12 12 0 0 0 11.67-9.26 175.91 175.91 0 0 1 317-56.94l-101.46-4.86a12 12 0 0 0-12.57 12v47.41a12 12 0 0 0 12 12H500a12 12 0 0 0 12-12V12a12 12 0 0 0-12-12h-47.37a12 12 0 0 0-11.98 12.57zM255.83 432a175.61 175.61 0 0 1-146-77.8l101.8 4.87a12 12 0 0 0 12.57-12v-47.4a12 12 0 0 0-12-12H12a12 12 0 0 0-12 12V500a12 12 0 0 0 12 12h47.35a12 12 0 0 0 12-12.6l-4.15-82.57A247.17 247.17 0 0 0 255.83 504c121.11 0 221.93-86.92 243.55-201.82a12 12 0 0 0-11.8-14.18h-49.05a12 12 0 0 0-11.67 9.26A175.86 175.86 0 0 1 255.83 432z"></path></symbol>
    <symbol id="could-upload-alt-solid" aria-hidden="true" focusable="false" data-prefix="fas" data-icon="cloud-upload-alt" class="svg-inline--fa fa-cloud-upload-alt fa-w-20" role="img" xmlns="http://www.w3.org/2000/svg" viewBox="0 0 640 512"><path fill="white" d="M537.6 226.6c4.1-10.7 6.4-22.4 6.4-34.6 0-53-43-96-96-96-19.7 0-38.1 6-53.3 16.2C367 64.2 315.3 32 256 32c-88.4 0-160 71.6-160 160 0 2.7.1 5.4.2 8.1C40.2 219.8 0 273.2 0 336c0 79.5 64.5 144 144 144h368c70.7 0 128-57.3 128-128 0-61.9-44-113.6-102.4-125.4zM393.4 288H328v112c0 8.8-7.2 16-16 16h-48c-8.8 0-16-7.2-16-16V288h-65.4c-14.3 0-21.4-17.2-11.3-27.3l105.4-105.4c6.2-6.2 16.4-6.2 22.6 0l105.4 105.4c10.1 10.1 2.9 27.3-11.3 27.3z"></path></symbol>
    <symbol id="pen-solid" aria-hidden="true" focusable="false" data-prefix="fas" data-icon="pen" class="svg-inline--fa fa-pen fa-w-16" role="img" xmlns="http://www.w3.org/2000/svg" viewBox="0 0 512 512"><path fill="currentColor" d="M290.74 93.24l128.02 128.02-277.99 277.99-114.14 12.6C11.35 513.54-1.56 500.62.14 485.34l12.7-114.22 277.9-277.88zm207.2-19.06l-60.11-60.11c-18.75-18.75-49.16-18.75-67.91 0l-56.55 56.55 128.02 128.02 56.55-56.55c18.75-18.76 18.75-49.16 0-67.91z"></path></symbol>
    <symbol id="pen-solid-white" aria-hidden="true" focusable="false" data-prefix="fas" data-icon="pen" class="svg-inline--fa fa-pen fa-w-16" role="img" xmlns="http://www.w3.org/2000/svg" viewBox="0 0 512 512"><path fill="white" d="M290.74 93.24l128.02 128.02-277.99 277.99-114.14 12.6C11.35 513.54-1.56 500.62.14 485.34l12.7-114.22 277.9-277.88zm207.2-19.06l-60.11-60.11c-18.75-18.75-49.16-18.75-67.91 0l-56.55 56.55 128.02 128.02 56.55-56.55c18.75-18.76 18.75-49.16 0-67.91z"></path></symbol>
    <symbol id="search-solid" aria-hidden="true" focusable="false" data-prefix="fas" data-icon="search" class="svg-inline--fa fa-search fa-w-16" role="img" xmlns="http://www.w3.org/2000/svg" viewBox="0 0 512 512"><path fill="black  " d="M505 442.7L405.3 343c-4.5-4.5-10.6-7-17-7H372c27.6-35.3 44-79.7 44-128C416 93.1 322.9 0 208 0S0 93.1 0 208s93.1 208 208 208c48.3 0 92.7-16.4 128-44v16.3c0 6.4 2.5 12.5 7 17l99.7 99.7c9.4 9.4 24.6 9.4 33.9 0l28.3-28.3c9.4-9.4 9.4-24.6.1-34zM208 336c-70.7 0-128-57.2-128-128 0-70.7 57.2-128 128-128 70.7 0 128 57.2 128 128 0 70.7-57.2 128-128 128z"></path></symbol>
    <symbol id="trash-alt-solid" aria-hidden="true" focusable="false" data-prefix="fas" data-icon="trash-alt" class="svg-inline--fa fa-trash-alt fa-w-14" role="img" xmlns="http://www.w3.org/2000/svg" viewBox="0 0 448 512"><path fill="currentColor" d="M32 464a48 48 0 0 0 48 48h288a48 48 0 0 0 48-48V128H32zm272-256a16 16 0 0 1 32 0v224a16 16 0 0 1-32 0zm-96 0a16 16 0 0 1 32 0v224a16 16 0 0 1-32 0zm-96 0a16 16 0 0 1 32 0v224a16 16 0 0 1-32 0zM432 32H312l-9.4-18.7A24 24 0 0 0 281.1 0H166.8a23.72 23.72 0 0 0-21.4 13.3L136 32H16A16 16 0 0 0 0 48v32a16 16 0 0 0 16 16h416a16 16 0 0 0 16-16V48a16 16 0 0 0-16-16z"></path></symbol>
    <symbol id="trash-alt-solid-white" aria-hidden="true" focusable="false" data-prefix="fas" data-icon="trash-alt" class="svg-inline--fa fa-trash-alt fa-w-14" role="img" xmlns="http://www.w3.org/2000/svg" viewBox="0 0 448 512"><path fill="white" d="M32 464a48 48 0 0 0 48 48h288a48 48 0 0 0 48-48V128H32zm272-256a16 16 0 0 1 32 0v224a16 16 0 0 1-32 0zm-96 0a16 16 0 0 1 32 0v224a16 16 0 0 1-32 0zm-96 0a16 16 0 0 1 32 0v224a16 16 0 0 1-32 0zM432 32H312l-9.4-18.7A24 24 0 0 0 281.1 0H166.8a23.72 23.72 0 0 0-21.4 13.3L136 32H16A16 16 0 0 0 0 48v32a16 16 0 0 0 16 16h416a16 16 0 0 0 16-16V48a16 16 0 0 0-16-16z"></path></symbol>
    <symbol id="user-circle-solid" aria-hidden="true" focusable="false" data-prefix="fas" data-icon="user-circle" class="svg-inline--fa fa-user-circle fa-w-16" role="img" xmlns="http://www.w3.org/2000/svg" viewBox="0 0 496 512"><path fill="currentColor" d="M248 8C111 8 0 119 0 256s111 248 248 248 248-111 248-248S385 8 248 8zm0 96c48.6 0 88 39.4 88 88s-39.4 88-88 88-88-39.4-88-88 39.4-88 88-88zm0 344c-58.7 0-111.3-26.6-146.5-68.2 18.8-35.4 55.6-59.8 98.5-59.8 2.4 0 4.8.4 7.1 1.1 13 4.2 26.6 6.9 40.9 6.9 14.3 0 28-2.7 40.9-6.9 2.3-.7 4.7-1.1 7.1-1.1 42.9 0 79.7 24.4 98.5 59.8C359.3 421.4 306.7 448 248 448z"></path></symbol>
    <symbol id="search-solid" aria-hidden="true" focusable="false" data-prefix="fas" data-icon="search" class="svg-inline--fa fa-search fa-w-16" role="img" xmlns="http://www.w3.org/2000/svg" viewBox="0 0 512 512"><path fill="currentColor" d="M505 442.7L405.3 343c-4.5-4.5-10.6-7-17-7H372c27.6-35.3 44-79.7 44-128C416 93.1 322.9 0 208 0S0 93.1 0 208s93.1 208 208 208c48.3 0 92.7-16.4 128-44v16.3c0 6.4 2.5 12.5 7 17l99.7 99.7c9.4 9.4 24.6 9.4 33.9 0l28.3-28.3c9.4-9.4 9.4-24.6.1-34zM208 336c-70.7 0-128-57.2-128-128 0-70.7 57.2-128 128-128 70.7 0 128 57.2 128 128 0 70.7-57.2 128-128 128z"></path></symbol>
    <symbol id="power-off-solid" aria-hidden="true" focusable="false" data-prefix="fas" data-icon="power-off" class="svg-inline--fa fa-power-off fa-w-16" role="img" xmlns="http://www.w3.org/2000/svg" viewBox="0 0 512 512"><path fill="currentColor" d="M400 54.1c63 45 104 118.6 104 201.9 0 136.8-110.8 247.7-247.5 248C120 504.3 8.2 393 8 256.4 7.9 173.1 48.9 99.3 111.8 54.2c11.7-8.3 28-4.8 35 7.7L162.6 90c5.9 10.5 3.1 23.8-6.6 31-41.5 30.8-68 79.6-68 134.9-.1 92.3 74.5 168.1 168 168.1 91.6 0 168.6-74.2 168-169.1-.3-51.8-24.7-101.8-68.1-134-9.7-7.2-12.4-20.5-6.5-30.9l15.8-28.1c7-12.4 23.2-16.1 34.8-7.8zM296 264V24c0-13.3-10.7-24-24-24h-32c-13.3 0-24 10.7-24 24v240c0 13.3 10.7 24 24 24h32c13.3 0 24-10.7 24-24z"></path></symbol>
    <symbol id="comments-solid" aria-hidden="true" focusable="false" data-prefix="fas" data-icon="comments" class="svg-inline--fa fa-comments fa-w-18" role="img" xmlns="http://www.w3.org/2000/svg" viewBox="0 0 576 512"><path fill="currentColor" d="M416 192c0-88.4-93.1-160-208-160S0 103.6 0 192c0 34.3 14.1 65.9 38 92-13.4 30.2-35.5 54.2-35.8 54.5-2.2 2.3-2.8 5.7-1.5 8.7S4.8 352 8 352c36.6 0 66.9-12.3 88.7-25 32.2 15.7 70.3 25 111.3 25 114.9 0 208-71.6 208-160zm122 220c23.9-26 38-57.7 38-92 0-66.9-53.5-124.2-129.3-148.1.9 6.6 1.3 13.3 1.3 20.1 0 105.9-107.7 192-240 192-10.8 0-21.3-.8-31.7-1.9C207.8 439.6 281.8 480 368 480c41 0 79.1-9.2 111.3-25 21.8 12.7 52.1 25 88.7 25 3.2 0 6.1-1.9 7.3-4.8 1.3-2.9.7-6.3-1.5-8.7-.3-.3-22.4-24.2-35.8-54.5z"></path></symbol>
    <symbol id="wrench-solid" aria-hidden="true" focusable="false" data-prefix="fas" data-icon="wrench" class="svg-inline--fa fa-wrench fa-w-16" role="img" xmlns="http://www.w3.org/2000/svg" viewBox="0 0 512 512"><path fill="currentColor" d="M507.73 109.1c-2.24-9.03-13.54-12.09-20.12-5.51l-74.36 74.36-67.88-11.31-11.31-67.88 74.36-74.36c6.62-6.62 3.43-17.9-5.66-20.16-47.38-11.74-99.55.91-136.58 37.93-39.64 39.64-50.55 97.1-34.05 147.2L18.74 402.76c-24.99 24.99-24.99 65.51 0 90.5 24.99 24.99 65.51 24.99 90.5 0l213.21-213.21c50.12 16.71 107.47 5.68 147.37-34.22 37.07-37.07 49.7-89.32 37.91-136.73zM64 472c-13.25 0-24-10.75-24-24 0-13.26 10.75-24 24-24s24 10.74 24 24c0 13.25-10.75 24-24 24z"></path></symbol>
    <symbol id="users-solid" aria-hidden="true" focusable="false" data-prefix="fas" data-icon="users" class="svg-inline--fa fa-users fa-w-20" role="img" xmlns="http://www.w3.org/2000/svg" viewBox="0 0 640 512"><path fill="currentColor" d="M96 224c35.3 0 64-28.7 64-64s-28.7-64-64-64-64 28.7-64 64 28.7 64 64 64zm448 0c35.3 0 64-28.7 64-64s-28.7-64-64-64-64 28.7-64 64 28.7 64 64 64zm32 32h-64c-17.6 0-33.5 7.1-45.1 18.6 40.3 22.1 68.9 62 75.1 109.4h66c17.7 0 32-14.3 32-32v-32c0-35.3-28.7-64-64-64zm-256 0c61.9 0 112-50.1 112-112S381.9 32 320 32 208 82.1 208 144s50.1 112 112 112zm76.8 32h-8.3c-20.8 10-43.9 16-68.5 16s-47.6-6-68.5-16h-8.3C179.6 288 128 339.6 128 403.2V432c0 26.5 21.5 48 48 48h288c26.5 0 48-21.5 48-48v-28.8c0-63.6-51.6-115.2-115.2-115.2zm-223.7-13.4C161.5 263.1 145.6 256 128 256H64c-35.3 0-64 28.7-64 64v32c0 17.7 14.3 32 32 32h65.9c6.3-47.4 34.9-87.3 75.2-109.4z"></path></symbol>
    <symbol id="eye-regular" aria-hidden="true" focusable="false" data-prefix="far" data-icon="eye" class="svg-inline--fa fa-eye fa-w-18" role="img" xmlns="http://www.w3.org/2000/svg" viewBox="0 0 576 512"><path fill="currentColor" d="M288 144a110.94 110.94 0 0 0-31.24 5 55.4 55.4 0 0 1 7.24 27 56 56 0 0 1-56 56 55.4 55.4 0 0 1-27-7.24A111.71 111.71 0 1 0 288 144zm284.52 97.4C518.29 135.59 410.93 64 288 64S57.68 135.64 3.48 241.41a32.35 32.35 0 0 0 0 29.19C57.71 376.41 165.07 448 288 448s230.32-71.64 284.52-177.41a32.35 32.35 0 0 0 0-29.19zM288 400c-98.65 0-189.09-55-237.93-144C98.91 167 189.34 112 288 112s189.09 55 237.93 144C477.1 345 386.66 400 288 400z"></path></symbol>
    <symbol id="user-solid" aria-hidden="true" focusable="false" data-prefix="fas" data-icon="user" class="svg-inline--fa fa-user fa-w-14" role="img" xmlns="http://www.w3.org/2000/svg" viewBox="0 0 448 512"><path fill="currentColor" d="M224 256c70.7 0 128-57.3 128-128S294.7 0 224 0 96 57.3 96 128s57.3 128 128 128zm89.6 32h-16.7c-22.2 10.2-46.9 16-72.9 16s-50.6-5.8-72.9-16h-16.7C60.2 288 0 348.2 0 422.4V464c0 26.5 21.5 48 48 48h352c26.5 0 48-21.5 48-48v-41.6c0-74.2-60.2-134.4-134.4-134.4z"></path></symbol>
    <symbol id="eye-slash-regular" aria-hidden="true" focusable="false" data-prefix="far" data-icon="eye-slash" class="svg-inline--fa fa-eye-slash fa-w-20" role="img" xmlns="http://www.w3.org/2000/svg" viewBox="0 0 640 512"><path fill="currentColor" d="M634 471L36 3.51A16 16 0 0 0 13.51 6l-10 12.49A16 16 0 0 0 6 41l598 467.49a16 16 0 0 0 22.49-2.49l10-12.49A16 16 0 0 0 634 471zM296.79 146.47l134.79 105.38C429.36 191.91 380.48 144 320 144a112.26 112.26 0 0 0-23.21 2.47zm46.42 219.07L208.42 260.16C210.65 320.09 259.53 368 320 368a113 113 0 0 0 23.21-2.46zM320 112c98.65 0 189.09 55 237.93 144a285.53 285.53 0 0 1-44 60.2l37.74 29.5a333.7 333.7 0 0 0 52.9-75.11 32.35 32.35 0 0 0 0-29.19C550.29 135.59 442.93 64 320 64c-36.7 0-71.71 7-104.63 18.81l46.41 36.29c18.94-4.3 38.34-7.1 58.22-7.1zm0 288c-98.65 0-189.08-55-237.93-144a285.47 285.47 0 0 1 44.05-60.19l-37.74-29.5a333.6 333.6 0 0 0-52.89 75.1 32.35 32.35 0 0 0 0 29.19C89.72 376.41 197.08 448 320 448c36.7 0 71.71-7.05 104.63-18.81l-46.41-36.28C359.28 397.2 339.89 400 320 400z"></path></symbol>
    <symbol id="plus-circle-solid" aria-hidden="true" focusable="false" data-prefix="fas" data-icon="plus-circle" class="svg-inline--fa fa-plus-circle fa-w-16" role="img" xmlns="http://www.w3.org/2000/svg" viewBox="0 0 512 512"><path fill="currentColor" d="M256 8C119 8 8 119 8 256s111 248 248 248 248-111 248-248S393 8 256 8zm144 276c0 6.6-5.4 12-12 12h-92v92c0 6.6-5.4 12-12 12h-56c-6.6 0-12-5.4-12-12v-92h-92c-6.6 0-12-5.4-12-12v-56c0-6.6 5.4-12 12-12h92v-92c0-6.6 5.4-12 12-12h56c6.6 0 12 5.4 12 12v92h92c6.6 0 12 5.4 12 12v56z"></path></symbol>
    <symbol id="plus-solid" aria-hidden="true" focusable="false" data-prefix="fas" data-icon="plus" class="svg-inline--fa fa-plus fa-w-14" role="img" xmlns="http://www.w3.org/2000/svg" viewBox="0 0 448 512"><path fill="currentColor" d="M416 208H272V64c0-17.67-14.33-32-32-32h-32c-17.67 0-32 14.33-32 32v144H32c-17.67 0-32 14.33-32 32v32c0 17.67 14.33 32 32 32h144v144c0 17.67 14.33 32 32 32h32c17.67 0 32-14.33 32-32V304h144c17.67 0 32-14.33 32-32v-32c0-17.67-14.33-32-32-32z"></path></symbol>
</svg>